<?xml version="1.0" encoding="UTF-8"?>
<svg id="Layer_1" data-name="Layer 1" xmlns="http://www.w3.org/2000/svg" viewBox="0 0 500 500">
  <defs>
    <style>
      .cls-1 {
        fill: #fff;
        stroke: #000;
        stroke-miterlimit: 10;
        stroke-width: 2px;
      }
    </style>
  </defs>
  <g>
    <path d="M169.83,97.44c0,11.83,0,23.66,0,35.49-2.32-.7-3.47-1.05-5.79-1.74,0,22.39,0,44.79,0,67.18,2.32.31,3.47.46,5.79.77,0,12.37,0,24.75,0,37.12-10.8-.41-16.19-.62-26.99-1.03v-39.67c1.98.26,2.96.39,4.94.65,0-26.67,0-53.34,0-80.02-4.56,39.56-8.98,79.13-13.28,118.71-2.69-.1-4.04-.15-6.73-.26-4.94-42.81-9.73-85.64-14.39-128.48,0,28.49,0,56.99,0,85.48,2.28.3,3.42.45,5.71.76,0,13.97,0,27.94,0,41.91-9.4-.36-14.1-.54-23.5-.9,0-14.71,0-29.42,0-44.13,2.25.3,3.37.45,5.62.75,0-25.92,0-51.84,0-77.76-2.25-.68-3.37-1.01-5.62-1.69,0-14.06,0-28.13,0-42.19,9.9,3.88,19.81,7.75,29.71,11.63,2.52,24.18,5.07,48.35,7.66,72.52,2.54-22.17,5.13-44.33,7.75-66.49,9.71,3.8,19.41,7.59,29.12,11.39Z"/>
    <path d="M210.35,198.04c.4,3.59.45,7.99.6,12.75.32,10.39-2.72,27.82-16.18,27.57-7.43-.14-12.61-3.91-14.6-10.81-4.2-14.53-3.35-31.56-3.28-46.64.06-11.82-.57-25.28,3.62-36.34,2.18-5.76,6.97-7.67,13.67-5.63,6.64,2.02,11.33,6.67,13.62,13.52,3.72,11.13,3.43,23.51,3.66,35.3-.03,2.47-.05,3.7-.08,6.17-8.62-1.41-12.92-2.11-21.54-3.51,0,3.9,0,5.85,0,9.75.1,1.91.15,2.86.26,4.76.4,3.27,1.83,4.95,4.26,5.11,2.83.18,4.26-2.66,4.26-8.57v-3.11c.03-.82.05-1.24.09-2.06,4.67.7,7,1.06,11.66,1.76ZM189.58,179.45c3.64.7,5.47,1.05,9.11,1.75,0-2.75,0-4.13,0-6.88,0-5.53-1.5-8.64-4.51-9.35-3.18-.74-4.77,2.3-4.77,9.13,0,1.42.06,3.2.17,5.35Z"/>
    <path d="M234.88,214.39c1.98.22,2.96.33,4.94.56v23.99c-8.72-.33-13.08-.5-21.8-.83v-25.61c1.87.21,2.81.32,4.68.53,0-23.62,0-47.24,0-70.86-1.87-.6-2.81-.9-4.68-1.5,0-9.74,0-14.62,0-24.36,6.74,2.64,10.12,3.96,16.86,6.6v91.5Z"/>
    <path d="M245.18,211.68v-27.05c0-12.11,1.15-19.88,3.45-23.19,2.3-3.3,6.97-3.81,14.01-1.67,6.98,2.13,11.63,5.44,13.96,9.81,2.33,4.37,3.49,12.02,3.49,23.1v22.4c-.03,2.34-.05,3.51-.08,5.85.71,10.83-6.06,20.59-17.63,19.81-14.42-.98-17.27-17.23-17.2-29.05ZM267.91,204.66v-9.47c-.03-1.38-.05-2.07-.08-3.45v-3.13c0-4.28-1.7-6.81-5.11-7.61-3.58-.84-5.36,3.44-5.36,12.82v10.28c0,8.65,1.73,13.16,5.19,13.55,3.58.4,5.36-3.93,5.36-12.99Z"/>
    <path d="M322.91,157.33v66.95c1.81.2,2.71.3,4.51.51v17.49c-5.82-.22-8.74-.33-14.56-.56v-6.08c-1.19.53-2.21,1.32-3.06,2.36-2.33,2.85-5.61,4.38-9.45,4.12-11.43-.76-12.48-16.73-12.43-25.77v-20.56c-.07-7.6.36-27.78,12.26-24.59,4.49,1.21,8.12,4.69,10.56,9.68v-13.38c-1.98-.66-2.96-.98-4.94-1.64v-15.24c6.85,2.68,10.27,4.02,17.11,6.69ZM305.71,191.07c-3.28-.95-4.94,1.6-4.94,7.66-.03,3.25-.05,4.87-.08,8.13v7.53c0,6.29,1.68,9.54,5.02,9.76,3.06.2,4.6-4.11,4.6-12.92,0-12.55-1.54-19.28-4.6-20.16Z"/>
    <path d="M372.12,193.82v13.48c-1.67-.38-2.5-.58-4.17-.96-3.3,13.07-6.4,26.18-9.45,39.3-2.67,11.39-8.03,17.65-16.09,18.1-8.29.47-12.43-3.36-12.43-11.48,0-2.73.31-5.61.94-8.59,3.24.11,4.85.16,8.09.27-.23,1.07-.34,2-.34,2.77,0,2.36,1.19,3.55,3.58,3.56,2.16,0,3.8-2.04,4.94-6.06-4.47-15.12-8.65-30.33-12.69-45.58-1.77-.41-2.66-.61-4.43-1.02v-16.45c8.24,2.48,12.36,3.72,20.6,6.2v15c-1.74-.4-2.61-.6-4.34-1,3,10.6,4.5,15.73,7.49,25.65,1.87-9.35,2.81-13.92,4.68-22.84-1.87-.43-2.81-.65-4.68-1.08v-14.77c7.32,2.2,10.98,3.31,18.3,5.51Z"/>
    <path d="M181.24,362.44v37.82c-4.09,1.59-7.69,1.05-10.81-1.77-.17-.21-.46-.47-.85-.8-3.75,6.42-8.71,10.94-14.9,13.36-9.65,3.78-16.29,1.94-19.03-5.38-5.94-15.87-4.39-35.82-4.55-52.99v-27.48c.18-16.35-.84-34.79,4.72-50.2,2.99-8.28,9.49-12.52,19.03-12.78,8.97-.24,15.17,3.47,17.63,10.44,4.88,13.82,4.22,30.79,4.17,45.74v9.49c-.07,3.41-.1,5.12-.17,8.53-.03,3.57-.05,5.35-.08,8.92,0,4-.28,9.57-.85,16.74,1.65.93,3.07,1.21,4.26.86.45-.13.94-.31,1.45-.52ZM148.46,346.47c1.7-1.89,3.55-3.05,5.53-3.49,1.82-.41,3.6-.07,5.36.99.28-4.52.43-10.18.43-16.99,0-17.17-3.49-26.19-6.04-25.01-6.04,2.78-5.65,18.43-5.79,27.13-.11,6.83.17,12.74.51,17.38ZM159.87,364.39c-1.25-5.28-3.26-7.6-6.04-6.88-3.46.9-5.19,4.03-5.19,9.39s1.73,7.2,5.19,6.17c2.67-.79,4.68-3.71,6.04-8.68Z"/>
    <path d="M222.02,293.15v64.3c1.94-.6,2.91-.91,4.85-1.51v24.95c-6.5,2.51-9.76,3.76-16.26,6.27v-11.39c-2.04,9.05-6.3,15.56-11.49,16.95-11.09,2.98-11.44-13.46-12-22.17,0-15.52,0-31.05,0-46.57-1.87.36-2.81.54-4.68.91,0-10.75,0-16.12,0-26.87,6.74-.83,10.11-1.24,16.86-2.07,0,18.57,0,37.13,0,55.7,0,10.22,1.62,14.82,4.85,13.79,3.8-1.21,5.7-8.21,5.7-21v-24.85c-1.97.38-2.96.57-4.94.95v-25.29c6.85-.84,10.27-1.26,17.11-2.1Z"/>
    <path d="M265.36,332.49c.4,2.87.49,6.48.6,10.52.31,11.88-4.56,25.31-16.18,30.03-7.39,3-12.76,1.79-14.6-3.14-4.27-11.49-3.15-25.95-3.28-38.64-.11-10.67-.16-22.64,3.62-32.56,2.23-5.86,6.97-9.22,13.67-10.02,6.64-.79,11.54,1.51,13.62,6.3,3.66,8.4,3.76,18.84,3.66,28.39-.03,2.09-.05,3.14-.08,5.24-8.62,2.25-12.92,3.37-21.54,5.61v8.31c.1,1.58.15,2.38.26,3.96.4,2.62,1.82,3.48,4.26,2.62,2.83-1,4.26-3.99,4.26-9.01v-2.64c.03-.71.05-1.07.09-1.78,4.67-1.27,7-1.91,11.66-3.18ZM244.58,324.98c3.64-.84,5.47-1.26,9.11-2.11v-5.84c0-4.69-1.5-6.76-4.51-6.18-3.18.6-4.77,3.82-4.77,9.64,0,1.21.06,2.71.17,4.49Z"/>
    <path d="M304.86,282.98v26.24c-3.95.89-5.93,1.33-9.88,2.22v-1.87c0-4.9-2.13-6.94-6.39-6.14-3.35.64-5.02,2.38-5.02,5.22,0,2.36,1.48,3.95,4.43,4.71,2.55.65,3.83.96,6.39,1.55,8.34,2.01,12.37,6.92,12.52,14.86.17,9.5-2.3,21.89-12.17,25.87-5.31,2.14-9.17,1.05-11.32-3.33v6.8c-3.95,1.52-5.93,2.28-9.88,3.81v-31.15c3.95-1.1,5.93-1.65,9.88-2.75v1.45c0,6.56,1.93,9.22,5.79,7.99,3.46-1.1,5.19-3.27,5.19-6.52,0-3.57-1.99-5.74-5.96-6.66-1.67-.4-2.5-.61-4.17-1.04-8-1.99-12-7.99-12-17.47,0-13.84,3.89-21.22,11.66-22.15,4.94-.59,8.63,1.61,11.07,6.37v-6.79c3.95-.49,5.93-.73,9.88-1.21Z"/>
    <path d="M334.83,279.3v16.11c-3.17.61-4.75.92-7.92,1.53v21.19c.03,1.24.05,1.85.08,3.09,0,3.5,1.62,4.74,4.85,3.7,1.42-.45,3.18-1.53,5.28-3.2v15.95c-4.03,2.55-7.1,4.28-9.2,5.1-8.97,3.49-13.45.13-13.45-10.07.07-1.69.1-2.54.17-4.23.03-1.71.05-2.56.09-4.27v-24.92c-1.84.36-2.76.53-4.6.89v-17.86c7.21-3.98,11.21-9.63,12-17.24.14-1.1.2-1.66.34-2.76,0-.12.06-.48.17-1.06,1.7-.07,2.55-.11,4.26-.18v19.18c3.17-.39,4.75-.58,7.92-.97Z"/>
  </g>
  <g>
    <path class="cls-1" d="M178.89,109.19c0,11.85,0,23.71,0,35.56-2.32-.69-3.48-1.04-5.81-1.74,0,22.43,0,44.87,0,67.3,2.32.31,3.48.46,5.81.76,0,12.4,0,24.79,0,37.19-10.83-.41-16.24-.62-27.07-1.03,0-13.24,0-26.49,0-39.73,1.98.26,2.97.39,4.95.65,0-26.71,0-53.43,0-80.14-4.57,39.62-9,79.25-13.32,118.9-2.7-.1-4.05-.15-6.75-.26-4.95-42.86-9.75-85.73-14.43-128.62,0,28.52,0,57.05,0,85.57,2.29.3,3.43.45,5.72.75v41.96c-9.43-.36-14.14-.54-23.57-.89v-44.17c2.25.3,3.38.45,5.64.74,0-25.95,0-51.89,0-77.84-2.25-.67-3.38-1.01-5.64-1.68v-42.23c9.93,3.86,19.87,7.72,29.8,11.58,2.53,24.2,5.09,48.4,7.68,72.6,2.55-22.2,5.14-44.4,7.77-66.6,9.73,3.78,19.47,7.56,29.2,11.34Z"/>
    <path class="cls-1" d="M219.53,209.94c.4,3.6.45,8.01.6,12.78.33,10.42-2.73,27.89-16.22,27.65-7.45-.13-12.64-3.92-14.64-10.83-4.21-14.55-3.36-31.62-3.29-46.73.06-11.85-.57-25.33,3.63-36.42,2.19-5.77,6.99-7.7,13.7-5.67,6.66,2.01,11.37,6.66,13.66,13.53,3.73,11.15,3.44,23.57,3.67,35.38-.03,2.47-.05,3.71-.08,6.19-8.64-1.4-12.96-2.1-21.6-3.5v9.77c.1,1.91.15,2.86.26,4.77.4,3.27,1.83,4.96,4.27,5.11,2.84.18,4.27-2.67,4.27-8.6v-3.12c.03-.83.05-1.24.09-2.07,4.68.7,7.02,1.05,11.7,1.75ZM198.7,191.33c3.65.7,5.48,1.05,9.14,1.74v-6.9c0-5.54-1.51-8.66-4.53-9.36-3.19-.74-4.78,2.31-4.78,9.15,0,1.42.06,3.21.17,5.36Z"/>
    <path class="cls-1" d="M244.12,226.31c1.98.22,2.97.33,4.95.55,0,9.63,0,14.44,0,24.07-8.74-.33-13.12-.5-21.86-.83,0-10.27,0-15.41,0-25.68l4.7.52c0-23.69,0-47.37,0-71.06-1.88-.6-2.82-.9-4.7-1.49,0-9.77,0-14.66,0-24.43,6.76,2.63,10.14,3.94,16.91,6.57,0,30.59,0,61.19,0,91.78Z"/>
    <path class="cls-1" d="M254.45,223.59c0-10.85,0-16.28,0-27.14,0-12.15,1.15-19.95,3.46-23.27,2.31-3.32,6.99-3.84,14.05-1.71,7,2.12,11.67,5.43,14,9.81,2.33,4.38,3.5,12.06,3.5,23.19v22.49c-.03,2.35-.05,3.52-.09,5.87.71,10.87-6.06,20.68-17.67,19.89-14.47-.98-17.32-17.29-17.25-29.14ZM277.25,216.52v-9.5c-.03-1.39-.05-2.08-.09-3.47v-3.14c0-4.29-1.71-6.83-5.12-7.63-3.59-.83-5.38,3.46-5.38,12.87v10.32c0,8.68,1.74,13.21,5.21,13.59,3.59.4,5.38-3.95,5.38-13.04Z"/>
    <path class="cls-1" d="M332.41,168.83c0,22.45,0,44.89,0,67.34,1.81.2,2.72.3,4.53.51,0,7.04,0,10.56,0,17.59-5.84-.22-8.76-.33-14.6-.55,0-2.45,0-3.67,0-6.11-1.19.53-2.22,1.32-3.07,2.38-2.33,2.86-5.63,4.41-9.48,4.15-11.47-.77-12.52-16.81-12.47-25.88v-20.66c-.07-7.64.36-27.9,12.3-24.73,4.5,1.2,8.14,4.69,10.59,9.7v-13.45c-1.98-.65-2.97-.98-4.95-1.63v-15.31c6.86,2.67,10.3,4,17.16,6.67ZM315.16,202.8c-3.29-.95-4.95,1.62-4.95,7.71-.03,3.27-.05,4.9-.09,8.17v7.57c0,6.32,1.68,9.59,5.04,9.8,3.07.19,4.61-4.14,4.61-12.99,0-12.62-1.54-19.37-4.61-20.26Z"/>
    <path class="cls-1" d="M381.76,205.38v13.59c-1.67-.38-2.51-.57-4.18-.96-3.31,13.17-6.42,26.39-9.48,39.62-2.68,11.47-8.06,17.77-16.14,18.23-8.31.47-12.47-3.39-12.47-11.55,0-2.75.31-5.64.94-8.64,3.24.11,4.87.16,8.11.26-.23,1.08-.34,2.01-.34,2.79,0,2.37,1.19,3.57,3.59,3.58,2.16,0,3.81-2.06,4.95-6.1-4.48-15.22-8.68-30.52-12.72-45.86-1.78-.41-2.66-.61-4.44-1.02v-16.55c8.27,2.47,12.4,3.71,20.66,6.18v15.1c-1.74-.4-2.61-.6-4.36-1,3.01,10.67,4.51,15.83,7.51,25.81,1.88-9.42,2.82-14.02,4.7-23.02-1.88-.43-2.82-.64-4.7-1.07,0-5.95,0-8.93,0-14.88,7.34,2.19,11.01,3.29,18.36,5.49Z"/>
    <path class="cls-1" d="M190.33,374.71c0,12.63,0,25.27,0,37.9-4.1,1.59-7.71,1.04-10.84-1.8-.17-.21-.46-.47-.85-.8-3.76,6.42-8.74,10.94-14.94,13.35-9.68,3.76-16.34,1.91-19.08-5.43-5.95-15.9-4.4-35.88-4.57-53.07v-27.52c.18-16.37-.84-34.84,4.74-50.27,3-8.29,9.52-12.54,19.08-12.79,8.99-.24,15.21,3.48,17.67,10.46,4.89,13.85,4.23,30.85,4.18,45.84v9.51c-.07,3.42-.1,5.13-.17,8.55-.03,3.57-.05,5.36-.09,8.94,0,4.01-.29,9.59-.85,16.78,1.65.94,3.07,1.22,4.27.87.45-.13.94-.3,1.45-.52ZM157.46,358.66c1.71-1.89,3.56-3.05,5.55-3.49,1.82-.41,3.61-.06,5.38,1,.28-4.53.43-10.2.43-17.02,0-17.2-3.5-26.24-6.06-25.06-6.05,2.78-5.67,18.45-5.81,27.16-.11,6.85.17,12.76.51,17.41ZM168.9,376.63c-1.25-5.29-3.27-7.62-6.06-6.9-3.47.9-5.21,4.03-5.21,9.39s1.74,7.22,5.21,6.19c2.68-.79,4.7-3.71,6.06-8.69Z"/>
    <path class="cls-1" d="M231.23,305.31c0,21.49,0,42.99,0,64.48,1.95-.6,2.92-.9,4.87-1.5,0,10.01,0,15.02,0,25.03-6.52,2.5-9.78,3.75-16.31,6.24,0-4.57,0-6.85,0-11.42-2.05,9.07-6.32,15.58-11.53,16.97-11.12,2.96-11.47-13.51-12.04-22.25,0-15.56,0-31.12,0-46.67-1.88.36-2.82.54-4.7.9v-26.93c6.76-.82,10.14-1.24,16.91-2.06,0,18.61,0,37.22,0,55.83,0,10.25,1.62,14.86,4.87,13.84,3.81-1.2,5.72-8.22,5.72-21.04,0-1.94,0-2.91,0-4.85v-20.06c-1.98.38-2.97.57-4.95.95,0-10.14,0-15.21,0-25.35,6.86-.84,10.3-1.26,17.16-2.09Z"/>
    <path class="cls-1" d="M274.69,344.84c.4,2.88.49,6.5.6,10.56.31,11.9-4.56,25.39-16.22,30.09-7.41,2.99-12.8,1.76-14.64-3.2-4.28-11.53-3.16-26.03-3.29-38.76-.11-10.7-.16-22.71,3.63-32.65,2.24-5.88,6.99-9.24,13.7-10.03,6.66-.79,11.57,1.52,13.66,6.33,3.67,8.43,3.77,18.91,3.67,28.5-.03,2.1-.05,3.15-.09,5.26-8.64,2.24-12.96,3.35-21.6,5.59v8.34c.1,1.59.15,2.38.26,3.97.4,2.63,1.83,3.5,4.27,2.64,2.83-.99,4.27-4,4.27-9.03v-2.65c.03-.72.05-1.07.09-1.79,4.68-1.27,7.02-1.9,11.7-3.17ZM253.86,337.26c3.65-.84,5.48-1.26,9.14-2.1v-5.86c0-4.71-1.51-6.78-4.53-6.21-3.19.6-4.78,3.82-4.78,9.66,0,1.21.06,2.72.17,4.51Z"/>
    <path class="cls-1" d="M314.31,295.18v26.38c-3.96.88-5.94,1.32-9.9,2.21v-1.88c0-4.92-2.13-6.98-6.4-6.18-3.36.63-5.04,2.38-5.04,5.23,0,2.37,1.48,3.97,4.44,4.74,2.56.65,3.84.97,6.4,1.57,8.37,2.03,12.41,6.99,12.55,14.96.17,9.53-2.29,21.99-12.21,25.96-5.32,2.13-9.19,1.02-11.36-3.39v6.83c-3.96,1.52-5.94,2.28-9.9,3.79,0-10.43,0-20.85,0-31.28,3.96-1.09,5.94-1.64,9.9-2.73v1.45c0,6.59,1.93,9.27,5.81,8.04,3.47-1.1,5.21-3.28,5.21-6.53,0-3.58-1.99-5.78-5.98-6.71-1.67-.41-2.51-.62-4.18-1.05-8.03-2.02-12.04-8.05-12.04-17.56,0-13.89,3.9-21.3,11.7-22.23,4.95-.59,8.65,1.62,11.1,6.42v-6.83c3.96-.48,5.94-.72,9.9-1.21Z"/>
    <path class="cls-1" d="M344.36,291.52c0,6.49,0,9.73,0,16.21-3.18.61-4.76.91-7.94,1.52v21.32c.03,1.24.05,1.87.09,3.11,0,3.52,1.62,4.77,4.87,3.74,1.42-.45,3.19-1.53,5.29-3.2v16.05c-4.04,2.55-7.12,4.28-9.22,5.09-8.99,3.48-13.49.09-13.49-10.17.07-1.7.1-2.55.17-4.25.03-1.72.05-2.57.09-4.29,0-10.02,0-15.03,0-25.05-1.84.35-2.77.53-4.61.89,0-7.18,0-10.77,0-17.95,7.23-3.99,11.24-9.67,12.04-17.32.14-1.11.2-1.67.34-2.77,0-.13.06-.48.17-1.07,1.71-.07,2.56-.11,4.27-.18v19.29c3.18-.39,4.76-.58,7.94-.97Z"/>
  </g>
</svg>