<?xml version="1.0" encoding="UTF-8"?>
<svg id="Layer_1" data-name="Layer 1" xmlns="http://www.w3.org/2000/svg" viewBox="0 0 500 500">
  <defs>
    <style>
      .cls-1, .cls-2, .cls-3, .cls-4, .cls-5, .cls-6, .cls-7 {
        stroke-miterlimit: 10;
      }

      .cls-1, .cls-3, .cls-4, .cls-5, .cls-6, .cls-7 {
        stroke: #000;
      }

      .cls-1, .cls-5, .cls-6 {
        stroke-linecap: round;
      }

      .cls-1, .cls-7 {
        fill: #ffe3bf;
      }

      .cls-2 {
        fill: #fff;
        stroke: #fff;
      }

      .cls-8, .cls-4, .cls-5 {
        fill: #ff953f;
      }

      .cls-6 {
        fill: none;
      }
    </style>
  </defs>
  <path class="cls-4" d="M338.09,392.73s-6.6-62.09,48.79-95.29c0,0,26.87-10.59,20.17-22.65,0,0,11.01,13.77,8.25,24.01-2.76,10.24,24.78-10.29,26.4-21,0,0,6.96,23.99-16.82,48.24s11.2,12.19,18.02.42c0,0-1.68,78.41-104.81,66.27Z"/>
  <path class="cls-4" d="M313,244.85h-146.53s-63.06,98.08-38.99,159.55h223.61l.32-.54c24.07-61.47-38.99-159.55-38.99-159.55"/>
  <g>
    <g>
      <path class="cls-8" d="M239.16,280.13c-49.63,0-90.01-40.38-90.01-90.01s40.38-90.01,90.01-90.01,90.01,40.38,90.01,90.01-40.38,90.01-90.01,90.01Z"/>
      <path d="M239.16,100.62c49.35,0,89.51,40.15,89.51,89.51s-40.15,89.51-89.51,89.51-89.51-40.15-89.51-89.51,40.15-89.51,89.51-89.51M239.16,99.62c-49.99,0-90.51,40.52-90.51,90.51s40.52,90.51,90.51,90.51,90.51-40.52,90.51-90.51-40.52-90.51-90.51-90.51h0Z"/>
    </g>
    <path class="cls-4" d="M161.21,145.18s-23.36,51.18-41.27,65.96c-.61.5-.38,1.47.39,1.64,3.45.76,11.07,1.8,17.69-1.77.78-.42,1.65.37,1.31,1.18-1.48,3.51-4.53,9.5-8.88,12.14-.73.44-.56,1.54.28,1.72,7.33,1.55,25.92,7.13,43.29,25.85"/>
    <path class="cls-4" d="M317.24,145.1s23.36,51.18,41.27,65.96c.61.5.38,1.47-.39,1.64-3.45.76-11.07,1.8-17.69-1.77-.78-.42-1.65.37-1.31,1.18,1.48,3.51,4.53,9.5,8.88,12.14.73.44.56,1.54-.28,1.72-7.33,1.55-25.92,7.13-43.29,25.85"/>
    <path class="cls-4" d="M173.62,128.17s-10.81-21.88-7.81-51.05c0,0,23.82,3.37,45.05,27.33"/>
    <path class="cls-4" d="M305.02,128.64s10.81-21.88,7.81-51.05c0,0-24.87,2.6-46.1,26.57"/>
  </g>
  <g>
    <path class="cls-5" d="M166.95,293.47c-.34,1.97-27.89-6.24-44.79-43.86-10.89-24.25-32.68-2.07-32.21,12.51.78,24.58,25.64,57.68,61.97,66.77"/>
    <path class="cls-1" d="M127.02,259.46c-7.15-1.88-7.33,9.49-7.33,9.49-13.67-3.89-13.05,9.53-13.05,9.53-6.27-2.76-12.54,1.51-12.54,1.51,0,0-11.47-21.05,4.21-35.57,15.68-14.52,23.52,4.85,23.52,4.85l5.19,10.19Z"/>
    <path class="cls-6" d="M104.2,240.63s3.12,11.81,8.89,16.08"/>
    <path class="cls-6" d="M95.08,248.19s.45,13.28,6.47,16.04"/>
  </g>
  <path class="cls-7" d="M166.95,404.36s-.35-104.11,72.31-110.89c0,0,63.96-4,72.66,110.72l-144.96.17Z"/>
  <g>
    <path class="cls-5" d="M273.92,294.25c1.94-.48,5.41,28.06-22.34,58.57-17.89,19.67,11.14,30.79,24.33,24.54,22.23-10.53,42.65-46.54,36.48-83.47"/>
    <path class="cls-1" d="M258.68,344.44c1.13,7.31,11.62,2.93,11.62,2.93,1.89,14.09,13.95,8.16,13.95,8.16-.03,6.85,6.39,10.9,6.39,10.9,0,0-14.72,18.92-34.3,10.34-19.58-8.58-4.94-23.5-4.94-23.5l7.27-8.83Z"/>
    <path class="cls-6" d="M250.21,372.64s9.9-7.34,11.5-14.33"/>
    <path class="cls-6" d="M261.25,378.2s11.85-5.69,11.97-12.31"/>
  </g>
  <path class="cls-7" d="M200.65,106.98c-2.67-3.17-13.43-13.16-26.48-18.44-.36-.14-.74.15-.7.53.31,2.53,1.34,10.16,3.27,14.69,2.2,5.19-3.79.22-4.47-.36-.02-.02-.05,0-.04.03.25.78,2.35,6.99,6.02,8.86s-3.75,1.55-4.48,1.52c-.02,0-.03.02-.02.04.46.5,5.07,5.39,8.07,5.32,2.67-.06,14.81-7.93,18.56-10.4.6-.4.73-1.22.26-1.78Z"/>
  <path class="cls-7" d="M276.82,107.33c2.67-3.17,13.43-13.16,26.48-18.44.36-.14.74.15.7.53-.31,2.53-1.34,10.16-3.27,14.69-2.2,5.19,3.79.22,4.47-.36.02-.02.05,0,.04.03-.25.78-2.35,6.99-6.02,8.86s3.75,1.55,4.48,1.52c.02,0,.03.02.02.04-.46.5-5.07,5.39-8.07,5.32-2.67-.06-14.81-7.93-18.56-10.4-.6-.4-.73-1.22-.26-1.78Z"/>
  <path class="cls-6" d="M239.44,198.62s2.16,14.11,14.85,9.12"/>
  <path class="cls-6" d="M239.49,198.56s-2.16,14.11-14.85,9.12"/>
  <circle class="cls-3" cx="200.71" cy="189.14" r="10.55"/>
  <circle class="cls-3" cx="278.07" cy="189.6" r="10.55"/>
  <circle class="cls-2" cx="196.85" cy="185.19" r="2.66"/>
  <circle class="cls-2" cx="273.76" cy="185.75" r="2.66"/>
  <ellipse class="cls-7" cx="239.28" cy="196.69" rx="5.12" ry="2.03"/>
  <path class="cls-7" d="M230.85,100.89c1.02,1.25,5.78,7.91,8.25,25.87.03.18.29.2.31.02.64-4.57,3.25-21.24,7.93-25.75.09-.09.06-.24-.07-.26-1.31-.24-7.02-1.13-16.31-.14-.13.01-.2.16-.12.26Z"/>
  <path class="cls-7" d="M250.01,101.41c.6,1.07,3.27,6.68,2.75,20.45,0,.14.19.19.23.06,1.08-3.33,5.25-15.46,9.34-18.22.08-.06.07-.17-.02-.2-.95-.36-5.1-1.77-12.18-2.26-.1,0-.17.1-.12.18Z"/>
  <path class="cls-7" d="M228.38,101.47c-.6,1.07-3.27,6.68-2.75,20.45,0,.14-.19.19-.23.06-1.08-3.33-5.25-15.46-9.34-18.22-.08-.06-.07-.17.02-.2.95-.36,5.1-1.77,12.18-2.26.1,0,.17.1.12.18Z"/>
  <path class="cls-7" d="M179.57,257.09c.11-1.22,1.08-7.36,9.3-18.42.08-.11-.05-.26-.16-.18-2.78,2.14-13.07,9.78-18.01,9.74-.1,0-.16.1-.1.18.58.83,3.21,4.35,8.77,8.76.08.06.19.02.2-.08Z"/>
  <path class="cls-7" d="M194.26,267.44c-.09-1.22-.15-7.44,6.14-19.7.06-.13-.09-.25-.19-.15-2.39,2.57-11.28,11.8-16.16,12.57-.1.02-.14.12-.07.19.71.72,3.88,3.76,10.09,7.2.08.05.19-.02.19-.11Z"/>
  <path class="cls-7" d="M293.71,260.92c-1.17-.35-7.01-2.5-16.24-12.73-.09-.1-.27,0-.21.12,1.55,3.15,7.03,14.73,6.02,19.57-.02.1.06.17.16.13.93-.41,4.89-2.29,10.31-6.88.07-.06.05-.19-.04-.21Z"/>
  <path class="cls-7" d="M306.13,248.82c-1.22-.09-7.39-.91-18.62-8.88-.12-.08-.26.05-.17.16,2.2,2.73,10.07,12.85,10.14,17.79,0,.1.1.16.18.1.82-.6,4.28-3.3,8.56-8.96.06-.08.01-.19-.08-.2Z"/>
  <path class="cls-7" d="M150.64,167.49c1.2-.24,7.37-1.05,20.3,3.7.13.05.24-.12.12-.2-2.84-2.06-13.08-9.77-14.44-14.51-.03-.09-.14-.12-.2-.05-.63.79-3.26,4.31-5.92,10.89-.04.09.04.19.13.17Z"/>
  <path class="cls-7" d="M327.32,165.74c-1.2-.24-7.37-1.05-20.3,3.7-.13.05-.24-.12-.12-.2,2.84-2.06,13.08-9.77,14.44-14.51.03-.09.14-.12.2-.05.63.79,3.26,4.31,5.92,10.89.04.09-.04.19-.13.17Z"/>
</svg>