<?xml version="1.0" encoding="UTF-8"?>
<svg id="Layer_1" data-name="Layer 1" xmlns="http://www.w3.org/2000/svg" viewBox="0 0 500 500">
  <defs>
    <style>
      .cls-1, .cls-2, .cls-3, .cls-4, .cls-5, .cls-6 {
        stroke: #000;
        stroke-miterlimit: 10;
      }

      .cls-1, .cls-4, .cls-5 {
        stroke-linecap: round;
      }

      .cls-1, .cls-6 {
        fill: #ffe3bf;
      }

      .cls-7, .cls-2, .cls-4 {
        fill: #ff953f;
      }

      .cls-3 {
        stroke-width: 2px;
      }

      .cls-3, .cls-5 {
        fill: none;
      }
    </style>
  </defs>
  <path class="cls-2" d="M332.19,393.89s-6.6-62.09,48.79-95.29c0,0,26.87-10.59,20.17-22.65,0,0,11.01,13.77,8.25,24.01-2.76,10.24,24.78-10.29,26.4-21,0,0,6.96,23.99-16.82,48.24-23.79,24.25,11.2,12.19,18.02.42,0,0-1.68,78.41-104.81,66.27Z"/>
  <path class="cls-2" d="M307.1,246.01h-146.53s-63.06,98.08-38.99,159.55h223.61l.32-.54c24.07-61.47-38.99-159.55-38.99-159.55"/>
  <g>
    <g>
      <path class="cls-7" d="M233.26,281.28c-49.63,0-90.01-40.38-90.01-90.01s40.38-90.01,90.01-90.01,90.01,40.38,90.01,90.01-40.38,90.01-90.01,90.01Z"/>
      <path d="M233.26,101.77c49.35,0,89.51,40.15,89.51,89.51s-40.15,89.51-89.51,89.51-89.51-40.15-89.51-89.51,40.15-89.51,89.51-89.51M233.26,100.77c-49.99,0-90.51,40.52-90.51,90.51s40.52,90.51,90.51,90.51,90.51-40.52,90.51-90.51-40.52-90.51-90.51-90.51h0Z"/>
    </g>
    <path class="cls-2" d="M155.31,146.33s-23.36,51.18-41.27,65.96c-.61.5-.38,1.47.39,1.64,3.45.76,11.07,1.8,17.69-1.77.78-.42,1.65.37,1.31,1.18-1.48,3.51-4.53,9.5-8.88,12.14-.73.44-.56,1.54.28,1.72,7.33,1.55,25.92,7.13,43.29,25.85"/>
    <path class="cls-2" d="M311.34,146.25s23.36,51.18,41.27,65.96c.61.5.38,1.47-.39,1.64-3.45.76-11.07,1.8-17.69-1.77-.78-.42-1.65.37-1.31,1.18,1.48,3.51,4.53,9.5,8.88,12.14.73.44.56,1.54-.28,1.72-7.33,1.55-25.92,7.13-43.29,25.85"/>
    <path class="cls-2" d="M167.72,129.32s-10.81-21.88-7.81-51.05c0,0,23.82,3.37,45.05,27.33"/>
    <path class="cls-2" d="M299.12,129.79s10.81-21.88,7.81-51.05c0,0-24.87,2.6-46.1,26.57"/>
  </g>
  <path class="cls-6" d="M161.05,405.51s-.35-104.11,72.31-110.89c0,0,63.96-4,72.66,110.72l-144.96.17Z"/>
  <path class="cls-6" d="M194.75,108.14c-2.67-3.17-13.43-13.16-26.48-18.44-.36-.14-.74.15-.7.53.31,2.53,1.34,10.16,3.27,14.69,2.2,5.19-3.79.22-4.47-.36-.02-.02-.05,0-.04.03.25.78,2.35,6.99,6.02,8.86s-3.75,1.55-4.48,1.52c-.02,0-.03.02-.02.04.46.5,5.07,5.39,8.07,5.32,2.67-.06,14.81-7.93,18.56-10.4.6-.4.73-1.22.26-1.78Z"/>
  <path class="cls-6" d="M270.92,108.48c2.67-3.17,13.43-13.16,26.48-18.44.36-.14.74.15.7.53-.31,2.53-1.34,10.16-3.27,14.69-2.2,5.19,3.79.22,4.47-.36.02-.02.05,0,.04.03-.25.78-2.35,6.99-6.02,8.86s3.75,1.55,4.48,1.52c.02,0,.03.02.02.04-.46.5-5.07,5.39-8.07,5.32-2.67-.06-14.81-7.93-18.56-10.4-.6-.4-.73-1.22-.26-1.78Z"/>
  <path class="cls-5" d="M233.54,199.77s2.16,14.11,14.85,9.12"/>
  <path class="cls-5" d="M233.59,199.71s-2.16,14.11-14.85,9.12"/>
  <ellipse class="cls-6" cx="233.38" cy="197.84" rx="5.12" ry="2.03"/>
  <path class="cls-6" d="M224.95,102.04c1.02,1.25,5.78,7.91,8.25,25.87.03.18.29.2.31.02.64-4.57,3.25-21.24,7.93-25.75.09-.09.06-.24-.07-.26-1.31-.24-7.02-1.13-16.31-.14-.13.01-.2.16-.12.26Z"/>
  <path class="cls-6" d="M244.11,102.56c.6,1.07,3.27,6.68,2.75,20.45,0,.14.19.19.23.06,1.08-3.33,5.25-15.46,9.34-18.22.08-.06.07-.17-.02-.2-.95-.36-5.1-1.77-12.18-2.26-.1,0-.17.1-.12.18Z"/>
  <path class="cls-6" d="M222.48,102.62c-.6,1.07-3.27,6.68-2.75,20.45,0,.14-.19.19-.23.06-1.08-3.33-5.25-15.46-9.34-18.22-.08-.06-.07-.17.02-.2.95-.36,5.1-1.77,12.18-2.26.1,0,.17.1.12.18Z"/>
  <path class="cls-6" d="M173.67,258.24c.11-1.22,1.08-7.36,9.3-18.42.08-.11-.05-.26-.16-.18-2.78,2.14-13.07,9.78-18.01,9.74-.1,0-.16.1-.1.18.58.83,3.21,4.35,8.77,8.76.08.06.19.02.2-.08Z"/>
  <path class="cls-6" d="M188.36,268.59c-.09-1.22-.15-7.44,6.14-19.7.06-.13-.09-.25-.19-.15-2.39,2.57-11.28,11.8-16.16,12.57-.1.02-.14.12-.07.19.71.72,3.88,3.76,10.09,7.2.08.05.19-.02.19-.11Z"/>
  <path class="cls-6" d="M287.81,262.08c-1.17-.35-7.01-2.5-16.24-12.73-.09-.1-.27,0-.21.12,1.55,3.15,7.03,14.73,6.02,19.57-.02.1.06.17.16.13.93-.41,4.89-2.29,10.31-6.88.07-.06.05-.19-.04-.21Z"/>
  <path class="cls-6" d="M300.23,249.97c-1.22-.09-7.39-.91-18.62-8.88-.12-.08-.26.05-.17.16,2.2,2.73,10.07,12.85,10.14,17.79,0,.1.1.16.18.1.82-.6,4.28-3.3,8.56-8.96.06-.08.01-.19-.08-.2Z"/>
  <path class="cls-6" d="M144.74,168.64c1.2-.24,7.37-1.05,20.3,3.7.13.05.24-.12.12-.2-2.84-2.06-13.08-9.77-14.44-14.51-.03-.09-.14-.12-.2-.05-.63.79-3.26,4.31-5.92,10.89-.04.09.04.19.13.17Z"/>
  <path class="cls-6" d="M321.42,166.89c-1.2-.24-7.37-1.05-20.3,3.7-.13.05-.24-.12-.12-.2,2.84-2.06,13.08-9.77,14.44-14.51.03-.09.14-.12.2-.05.63.79,3.26,4.31,5.92,10.89.04.09-.04.19-.13.17Z"/>
  <g>
    <path class="cls-4" d="M305.51,296.04c-.12,1.99-28.41-3.11-49.38-38.62-13.52-22.89-32.71,1.57-30.63,16.01,3.51,24.34,31.88,54.48,69,59.48"/>
    <path class="cls-1" d="M262.05,266.67c-7.32-1.08-6.23,10.24-6.23,10.24-14.02-2.35-11.91,10.92-11.91,10.92-6.54-2.05-12.3,2.89-12.3,2.89,0,0-13.73-19.65.24-35.82,13.97-16.17,23.91,2.21,23.91,2.21l6.29,9.55Z"/>
    <path class="cls-5" d="M237.6,250.26s4.09,11.62,10.3,15.22"/>
    <path class="cls-5" d="M229.03,259.16s1.94,13,8.24,15.07"/>
  </g>
  <g>
    <path class="cls-4" d="M184.22,305.44c-1.97-.32-3.18,28.4,26.88,56.63,19.38,18.2-8.68,31.57-22.33,26.38-22.99-8.75-46.19-43.03-42.94-80.34"/>
    <path class="cls-1" d="M203.37,354.28c-.55,7.37-11.36,3.84-11.36,3.84-.78,14.19-13.26,9.23-13.26,9.23.57,6.83-5.51,11.37-5.51,11.37,0,0,16.16,17.7,35,7.6,18.84-10.1,3.07-23.82,3.07-23.82l-7.95-8.23Z"/>
    <path class="cls-5" d="M213.74,381.98s-10.15-6.79-12.31-13.64"/>
    <path class="cls-5" d="M203.62,388.15s-12.41-4.75-13.06-11.34"/>
  </g>
  <path class="cls-3" d="M187.91,180.59l20.45,7.93c.64.25.47.95-.21.9l-22.38-1.63"/>
  <path class="cls-3" d="M278.17,182.06l-20.45,7.93c-.64.25-.47.95.21.9l22.38-1.63"/>
</svg>