<?xml version="1.0" encoding="UTF-8"?>
<svg id="Layer_1" data-name="Layer 1" xmlns="http://www.w3.org/2000/svg" viewBox="0 0 500 500">
  <defs>
    <style>
      .cls-1 {
        fill: #ff6855;
        stroke: #ff6855;
      }

      .cls-1, .cls-2, .cls-3, .cls-4, .cls-5, .cls-6, .cls-7, .cls-8 {
        stroke-miterlimit: 10;
      }

      .cls-2, .cls-4, .cls-5, .cls-6, .cls-7, .cls-8 {
        stroke: #000;
      }

      .cls-2, .cls-6, .cls-7 {
        stroke-linecap: round;
      }

      .cls-2, .cls-8 {
        fill: #ffe3bf;
      }

      .cls-3 {
        fill: #fff;
        stroke: #fff;
      }

      .cls-9, .cls-5, .cls-6 {
        fill: #ff953f;
      }

      .cls-7 {
        fill: none;
      }
    </style>
  </defs>
  <path class="cls-5" d="M348.74,402.65s-6.6-62.09,48.79-95.29c0,0,26.87-10.59,20.17-22.65,0,0,11.01,13.77,8.25,24.01-2.76,10.24,24.78-10.29,26.4-21,0,0,6.96,23.99-16.82,48.24s11.2,12.19,18.02.42c0,0-1.68,78.41-104.81,66.27Z"/>
  <path class="cls-5" d="M323.64,254.77h-146.53s-63.06,98.08-38.99,159.55h223.61l.32-.54c24.07-61.47-38.99-159.55-38.99-159.55"/>
  <g>
    <path class="cls-6" d="M177.6,303.39c-.34,1.97-27.89-6.24-44.79-43.86-10.89-24.25-32.68-2.07-32.21,12.51.78,24.58,25.64,57.68,61.97,66.77"/>
    <path class="cls-2" d="M137.66,269.37c-7.15-1.88-7.33,9.49-7.33,9.49-13.67-3.89-13.05,9.53-13.05,9.53-6.27-2.76-12.54,1.51-12.54,1.51,0,0-11.47-21.05,4.21-35.57s23.52,4.85,23.52,4.85l5.19,10.19Z"/>
    <path class="cls-7" d="M114.85,250.54s3.12,11.81,8.89,16.08"/>
    <path class="cls-7" d="M105.72,258.11s.45,13.28,6.47,16.04"/>
  </g>
  <path class="cls-8" d="M177.6,414.28s-.35-104.11,72.31-110.89c0,0,63.96-4,72.66,110.72l-144.96.17Z"/>
  <g>
    <path class="cls-6" d="M299.16,308.13c1.03,1.71-25.23,13.44-62.55-4.09-24.07-11.3-26.14,19.72-16.28,30.48,16.61,18.14,57.03,27.05,90.52,10.27"/>
    <path class="cls-2" d="M246.71,308.34c-6.65,3.23.62,11.97.62,11.97-12.91,5.96-3.69,15.73-3.69,15.73-6.56,1.99-8.54,9.32-8.54,9.32,0,0-22.41-8.49-19.98-29.73,2.43-21.23,21.01-11.64,21.01-11.64l10.58,4.35Z"/>
    <path class="cls-7" d="M217.27,308.56s9.93,7.3,17.08,6.77"/>
    <path class="cls-7" d="M215.2,320.74s8.93,9.64,15.3,7.81"/>
  </g>
  <g>
    <g>
      <path class="cls-9" d="M251.02,291.64c-49.63,0-90.01-40.38-90.01-90.01s40.38-90.01,90.01-90.01,90.01,40.38,90.01,90.01-40.38,90.01-90.01,90.01Z"/>
      <path d="M251.02,112.13c49.35,0,89.51,40.15,89.51,89.51s-40.15,89.51-89.51,89.51-89.51-40.15-89.51-89.51,40.15-89.51,89.51-89.51M251.02,111.13c-49.99,0-90.51,40.52-90.51,90.51s40.52,90.51,90.51,90.51,90.51-40.52,90.51-90.51-40.52-90.51-90.51-90.51h0Z"/>
    </g>
    <path class="cls-5" d="M173.07,156.69s-23.36,51.18-41.27,65.96c-.61.5-.38,1.47.39,1.64,3.45.76,11.07,1.8,17.69-1.77.78-.42,1.65.37,1.31,1.18-1.48,3.51-4.53,9.5-8.88,12.14-.73.44-.56,1.54.28,1.72,7.33,1.55,25.92,7.13,43.29,25.85"/>
    <path class="cls-5" d="M329.1,156.61s23.36,51.18,41.27,65.96c.61.5.38,1.47-.39,1.64-3.45.76-11.07,1.8-17.69-1.77-.78-.42-1.65.37-1.31,1.18,1.48,3.51,4.53,9.5,8.88,12.14.73.44.56,1.54-.28,1.72-7.33,1.55-25.92,7.13-43.29,25.85"/>
    <path class="cls-5" d="M185.49,139.68s-10.81-21.88-7.81-51.05c0,0,23.82,3.37,45.05,27.33"/>
    <path class="cls-5" d="M316.88,140.15s10.81-21.88,7.81-51.05c0,0-24.87,2.6-46.1,26.57"/>
  </g>
  <path class="cls-8" d="M212.51,118.5c-2.67-3.17-13.43-13.16-26.48-18.44-.36-.14-.74.15-.7.53.31,2.53,1.34,10.16,3.27,14.69,2.2,5.19-3.79.22-4.47-.36-.02-.02-.05,0-.04.03.25.78,2.35,6.99,6.02,8.86s-3.75,1.55-4.48,1.52c-.02,0-.03.02-.02.04.46.5,5.07,5.39,8.07,5.32,2.67-.06,14.81-7.93,18.56-10.4.6-.4.73-1.22.26-1.78Z"/>
  <path class="cls-8" d="M288.68,118.84c2.67-3.17,13.43-13.16,26.48-18.44.36-.14.74.15.7.53-.31,2.53-1.34,10.16-3.27,14.69-2.2,5.19,3.79.22,4.47-.36.02-.02.05,0,.04.03-.25.78-2.35,6.99-6.02,8.86s3.75,1.55,4.48,1.52c.02,0,.03.02.02.04-.46.5-5.07,5.39-8.07,5.32-2.67-.06-14.81-7.93-18.56-10.4-.6-.4-.73-1.22-.26-1.78Z"/>
  <path class="cls-7" d="M251.3,210.13s2.16,14.11,14.85,9.12"/>
  <path class="cls-7" d="M251.35,210.07s-2.16,14.11-14.85,9.12"/>
  <circle class="cls-4" cx="212.57" cy="200.65" r="10.55"/>
  <circle class="cls-4" cx="289.93" cy="201.11" r="10.55"/>
  <circle class="cls-3" cx="208.71" cy="196.71" r="2.66"/>
  <circle class="cls-3" cx="285.62" cy="197.26" r="2.66"/>
  <ellipse class="cls-8" cx="251.14" cy="208.2" rx="5.12" ry="2.03"/>
  <path class="cls-8" d="M242.71,112.4c1.02,1.25,5.78,7.91,8.25,25.87.03.18.29.2.31.02.64-4.57,3.25-21.24,7.93-25.75.09-.09.06-.24-.07-.26-1.31-.24-7.02-1.13-16.31-.14-.13.01-.2.16-.12.26Z"/>
  <path class="cls-8" d="M261.87,112.92c.6,1.07,3.27,6.68,2.75,20.45,0,.14.19.19.23.06,1.08-3.33,5.25-15.46,9.34-18.22.08-.06.07-.17-.02-.2-.95-.36-5.1-1.77-12.18-2.26-.1,0-.17.1-.12.18Z"/>
  <path class="cls-8" d="M240.24,112.98c-.6,1.07-3.27,6.68-2.75,20.45,0,.14-.19.19-.23.06-1.08-3.33-5.25-15.46-9.34-18.22-.08-.06-.07-.17.02-.2.95-.36,5.1-1.77,12.18-2.26.1,0,.17.1.12.18Z"/>
  <path class="cls-8" d="M191.43,268.6c.11-1.22,1.08-7.36,9.3-18.42.08-.11-.05-.26-.16-.18-2.78,2.14-13.07,9.78-18.01,9.74-.1,0-.16.1-.1.18.58.83,3.21,4.35,8.77,8.76.08.06.19.02.2-.08Z"/>
  <path class="cls-8" d="M206.12,278.95c-.09-1.22-.15-7.44,6.14-19.7.06-.13-.09-.25-.19-.15-2.39,2.57-11.28,11.8-16.16,12.57-.1.02-.14.12-.07.19.71.72,3.88,3.76,10.09,7.2.08.05.19-.02.19-.11Z"/>
  <path class="cls-8" d="M305.57,272.43c-1.17-.35-7.01-2.5-16.24-12.73-.09-.1-.27,0-.21.12,1.55,3.15,7.03,14.73,6.02,19.57-.02.1.06.17.16.13.93-.41,4.89-2.29,10.31-6.88.07-.06.05-.19-.04-.21Z"/>
  <path class="cls-8" d="M317.99,260.33c-1.22-.09-7.39-.91-18.62-8.88-.12-.08-.26.05-.17.16,2.2,2.73,10.07,12.85,10.14,17.79,0,.1.1.16.18.1.82-.6,4.28-3.3,8.56-8.96.06-.08.01-.19-.08-.2Z"/>
  <path class="cls-8" d="M162.5,179c1.2-.24,7.37-1.05,20.3,3.7.13.05.24-.12.12-.2-2.84-2.06-13.08-9.77-14.44-14.51-.03-.09-.14-.12-.2-.05-.63.79-3.26,4.31-5.92,10.89-.04.09.04.19.13.17Z"/>
  <path class="cls-8" d="M339.18,177.25c-1.2-.24-7.37-1.05-20.3,3.7-.13.05-.24-.12-.12-.2,2.84-2.06,13.08-9.77,14.44-14.51.03-.09.14-.12.2-.05.63.79,3.26,4.31,5.92,10.89.04.09-.04.19-.13.17Z"/>
  <path class="cls-4" d="M251.52,211.45c.98,1.89,3.36,9.76,9.62,9.06.07,0,.24.98.25,1.05.2,1.91,2.4,22.11-9.75,22.73-12.15.62-11.4-21.58-11.31-23.55,0-.07.09-.07.14-.12.29-.26,7.66.4,10.81-9.17.04-.13.18-.13.24,0Z"/>
  <path class="cls-1" d="M257.59,239.48c-.54,1.61-5.31,4.59-8.75,3.43s-5.61-5.19-5.07-6.8,3.74-1.84,7.22-.8c4.88,1.46,7.14,2.56,6.6,4.17Z"/>
</svg>