<?xml version="1.0" encoding="UTF-8"?>
<svg id="Layer_1" data-name="Layer 1" xmlns="http://www.w3.org/2000/svg" viewBox="0 0 500 500">
  <defs>
    <style>
      .cls-1 {
        fill: #ff6855;
        stroke: #ff6855;
      }

      .cls-1, .cls-2, .cls-3, .cls-4, .cls-5, .cls-6, .cls-7, .cls-8, .cls-9 {
        stroke-miterlimit: 10;
      }

      .cls-2, .cls-4, .cls-5, .cls-6, .cls-7, .cls-8, .cls-9 {
        stroke: #000;
      }

      .cls-2, .cls-7, .cls-8 {
        stroke-linecap: round;
      }

      .cls-2, .cls-9 {
        fill: #ffe3bf;
      }

      .cls-3 {
        fill: #fff;
        stroke: #fff;
      }

      .cls-10, .cls-5, .cls-7 {
        fill: #ff953f;
      }

      .cls-6 {
        stroke-width: 2px;
      }

      .cls-6, .cls-8 {
        fill: none;
      }
    </style>
  </defs>
  <g>
    <path class="cls-7" d="M260.11,393.87c1.56-1.24,24.82,23.99,12.37,63.3-8.03,25.35,23,23.31,32.36,12.12,15.79-18.86,37.49-74.4,16.44-105.37"/>
    <path class="cls-2" d="M275.42,446.59c4.08,6.17,11.79-2.19,11.79-2.19,7.61,12.01,16.08,1.58,16.08,1.58,2.84,6.24,11.55,7.17,11.55,7.17,0,0-6.65,23.4-28.02,23.79-21.37.39-14.31-19.29-14.31-19.29l2.92-11.06Z"/>
    <path class="cls-8" d="M279.89,475.84s5.54-10.88,4.08-17.91"/>
    <path class="cls-8" d="M291.73,476.27s8.51-10.21,5.86-16.28"/>
  </g>
  <g>
    <path class="cls-7" d="M216.23,391.75c-1.56-1.24-24.82,23.99-12.37,63.3,8.03,25.35-23,23.31-32.36,12.12-15.79-18.86-37.49-74.4-16.44-105.37"/>
    <path class="cls-2" d="M200.92,444.47c-4.08,6.17-11.79-2.19-11.79-2.19-7.61,12.01-16.08,1.58-16.08,1.58-2.84,6.24-11.55,7.17-11.55,7.17,0,0,6.65,23.4,28.02,23.79s14.31-19.29,14.31-19.29l-2.92-11.06Z"/>
    <path class="cls-8" d="M196.45,473.71s-5.54-10.88-4.08-17.91"/>
    <path class="cls-8" d="M184.61,474.15s-8.51-10.21-5.86-16.28"/>
  </g>
  <path class="cls-5" d="M336.96,355.45s-6.6-62.09,48.79-95.29c0,0,26.87-10.59,20.17-22.65,0,0,11.01,13.77,8.25,24.01-2.76,10.24,24.78-10.29,26.4-21,0,0,6.96,23.99-16.82,48.24s11.2,12.19,18.02.42c0,0-1.68,78.41-104.81,66.27Z"/>
  <path class="cls-5" d="M349.95,367.12l.32-.54c24.07-61.47-38.99-159.55-38.99-159.55"/>
  <path class="cls-5" d="M311.86,207.57h-146.53s-63.06,98.08-38.99,159.55c0,0,24.89,55.23,111.95,55.23s111.97-55.77,111.97-55.77"/>
  <g>
    <g>
      <path class="cls-10" d="M238.03,242.85c-49.63,0-90.01-40.38-90.01-90.01s40.38-90.01,90.01-90.01,90.01,40.38,90.01,90.01-40.38,90.01-90.01,90.01Z"/>
      <path d="M238.03,63.33c49.35,0,89.51,40.15,89.51,89.51s-40.15,89.51-89.51,89.51-89.51-40.15-89.51-89.51,40.15-89.51,89.51-89.51M238.03,62.33c-49.99,0-90.51,40.52-90.51,90.51s40.52,90.51,90.51,90.51,90.51-40.52,90.51-90.51-40.52-90.51-90.51-90.51h0Z"/>
    </g>
    <path class="cls-5" d="M160.08,107.9s-23.36,51.18-41.27,65.96c-.61.5-.38,1.47.39,1.64,3.45.76,11.07,1.8,17.69-1.77.78-.42,1.65.37,1.31,1.18-1.48,3.51-4.53,9.5-8.88,12.14-.73.44-.56,1.54.28,1.72,7.33,1.55,25.92,7.13,43.29,25.85"/>
    <path class="cls-5" d="M316.1,107.82s23.36,51.18,41.27,65.96c.61.5.38,1.47-.39,1.64-3.45.76-11.07,1.8-17.69-1.77-.78-.42-1.65.37-1.31,1.18,1.48,3.51,4.53,9.5,8.88,12.14.73.44.56,1.54-.28,1.72-7.33,1.55-25.92,7.13-43.29,25.85"/>
    <path class="cls-5" d="M172.49,90.88s-10.81-21.88-7.81-51.05c0,0,23.82,3.37,45.05,27.33"/>
    <path class="cls-5" d="M303.88,91.35s10.81-21.88,7.81-51.05c0,0-24.87,2.6-46.1,26.57"/>
  </g>
  <g>
    <path class="cls-7" d="M170.06,256.05c-1.15,1.63-22.45-17.69-21.43-58.91.66-26.58-28.57-16-34.46-2.64-9.92,22.51-1.82,63.1,27.02,87"/>
    <path class="cls-2" d="M148.75,208.12c-5.63-4.79-10.71,5.39-10.71,5.39-10.65-9.42-15.89,2.96-15.89,2.96-4.46-5.2-11.96-4.07-11.96-4.07,0,0-1.24-23.94,19.17-30.26s19.11,14.54,19.11,14.54l.27,11.43Z"/>
    <path class="cls-8" d="M136.32,181.28s-2.3,12,1.06,18.34"/>
    <path class="cls-8" d="M124.82,184.15s-5.34,12.17-1.1,17.26"/>
  </g>
  <path class="cls-9" d="M153.14,397.43c1.08-29.86,7.69-53.21,13.3-68.51,9.06-24.7,19.11-52.08,45.6-65.49,9.96-5.04,19.43-6.68,26.09-7.25,8.13.38,15.1,2.03,21.07,4.35,59.95,23.2,63.33,129.45,63.48,136.79-2.58,1.9-6.54,4.67-11.62,7.6-28.52,16.42-56.64,17.18-72.76,17.43-12.73.2-27.22.31-45.48-5.14-18.05-5.39-31.39-13.7-39.67-19.78Z"/>
  <g>
    <path class="cls-7" d="M307.8,252.67c1.19,1.6,22.05-18.18,20.11-59.37-1.25-26.56,28.21-16.63,34.39-3.41,10.42,22.28,3.22,63.04-25.08,87.58"/>
    <path class="cls-2" d="M328.03,204.28c5.53-4.91,10.83,5.15,10.83,5.15,10.44-9.65,15.95,2.6,15.95,2.6,4.35-5.3,11.87-4.33,11.87-4.33,0,0,.71-23.96-19.84-29.82-20.55-5.86-18.78,14.97-18.78,14.97l-.02,11.44Z"/>
    <path class="cls-8" d="M339.48,177.15s2.95,11.96-.27,18.37"/>
    <path class="cls-8" d="M351.53,179.89s5.5,11.94,1.38,17.12"/>
  </g>
  <path class="cls-9" d="M199.52,69.7c-2.67-3.17-13.43-13.16-26.48-18.44-.36-.14-.74.15-.7.53.31,2.53,1.34,10.16,3.27,14.69,2.2,5.19-3.79.22-4.47-.36-.02-.02-.05,0-.04.03.25.78,2.35,6.99,6.02,8.86s-3.75,1.55-4.48,1.52c-.02,0-.03.02-.02.04.46.5,5.07,5.39,8.07,5.32,2.67-.06,14.81-7.93,18.56-10.4.6-.4.73-1.22.26-1.78Z"/>
  <path class="cls-9" d="M275.68,70.04c2.67-3.17,13.43-13.16,26.48-18.44.36-.14.74.15.7.53-.31,2.53-1.34,10.16-3.27,14.69-2.2,5.19,3.79.22,4.47-.36.02-.02.05,0,.04.03-.25.78-2.35,6.99-6.02,8.86s3.75,1.55,4.48,1.52c.02,0,.03.02.02.04-.46.5-5.07,5.39-8.07,5.32-2.67-.06-14.81-7.93-18.56-10.4-.6-.4-.73-1.22-.26-1.78Z"/>
  <path class="cls-8" d="M238.31,161.34s2.16,14.11,14.85,9.12"/>
  <path class="cls-8" d="M238.36,161.27s-2.16,14.11-14.85,9.12"/>
  <circle class="cls-4" cx="276.94" cy="152.32" r="10.55"/>
  <circle class="cls-3" cx="272.63" cy="148.46" r="2.66"/>
  <ellipse class="cls-9" cx="238.15" cy="159.41" rx="5.12" ry="2.03"/>
  <path class="cls-9" d="M229.71,63.6c1.02,1.25,5.78,7.91,8.25,25.87.03.18.29.2.31.02.64-4.57,3.25-21.24,7.93-25.75.09-.09.06-.24-.07-.26-1.31-.24-7.02-1.13-16.31-.14-.13.01-.2.16-.12.26Z"/>
  <path class="cls-9" d="M248.87,64.13c.6,1.07,3.27,6.68,2.75,20.45,0,.14.19.19.23.06,1.08-3.33,5.25-15.46,9.34-18.22.08-.06.07-.17-.02-.2-.95-.36-5.1-1.77-12.18-2.26-.1,0-.17.1-.12.18Z"/>
  <path class="cls-9" d="M227.24,64.18c-.6,1.07-3.27,6.68-2.75,20.45,0,.14-.19.19-.23.06-1.08-3.33-5.25-15.46-9.34-18.22-.08-.06-.07-.17.02-.2.95-.36,5.1-1.77,12.18-2.26.1,0,.17.1.12.18Z"/>
  <path class="cls-9" d="M178.43,219.8c.11-1.22,1.08-7.36,9.3-18.42.08-.11-.05-.26-.16-.18-2.78,2.14-13.07,9.78-18.01,9.74-.1,0-.16.1-.1.18.58.83,3.21,4.35,8.77,8.76.08.06.19.02.2-.08Z"/>
  <path class="cls-9" d="M193.12,230.16c-.09-1.22-.15-7.44,6.14-19.7.06-.13-.09-.25-.19-.15-2.39,2.57-11.28,11.8-16.16,12.57-.1.02-.14.12-.07.19.71.72,3.88,3.76,10.09,7.2.08.05.19-.02.19-.11Z"/>
  <path class="cls-9" d="M292.57,223.64c-1.17-.35-7.01-2.5-16.24-12.73-.09-.1-.27,0-.21.12,1.55,3.15,7.03,14.73,6.02,19.57-.02.1.06.17.16.13.93-.41,4.89-2.29,10.31-6.88.07-.06.05-.19-.04-.21Z"/>
  <path class="cls-9" d="M304.99,211.54c-1.22-.09-7.39-.91-18.62-8.88-.12-.08-.26.05-.17.16,2.2,2.73,10.07,12.85,10.14,17.79,0,.1.1.16.18.1.82-.6,4.28-3.3,8.56-8.96.06-.08.01-.19-.08-.2Z"/>
  <path class="cls-9" d="M149.5,130.2c1.2-.24,7.37-1.05,20.3,3.7.13.05.24-.12.12-.2-2.84-2.06-13.08-9.77-14.44-14.51-.03-.09-.14-.12-.2-.05-.63.79-3.26,4.31-5.92,10.89-.04.09.04.19.13.17Z"/>
  <path class="cls-9" d="M326.19,128.46c-1.2-.24-7.37-1.05-20.3,3.7-.13.05-.24-.12-.12-.2,2.84-2.06,13.08-9.77,14.44-14.51.03-.09.14-.12.2-.05.63.79,3.26,4.31,5.92,10.89.04.09-.04.19-.13.17Z"/>
  <path class="cls-6" d="M193.6,143.12l20.45,7.93c.64.25.47.95-.21.9l-22.38-1.63"/>
  <path class="cls-4" d="M238.65,163.25c.98,1.89,3.36,9.76,9.62,9.06.07,0,.24.98.25,1.05.2,1.91,2.4,22.11-9.75,22.73-12.15.62-11.4-21.58-11.31-23.55,0-.07.09-.07.14-.12.29-.26,7.66.4,10.81-9.17.04-.13.18-.13.24,0Z"/>
  <path class="cls-1" d="M244.72,191.28c-.54,1.61-5.31,4.59-8.75,3.43s-5.61-5.19-5.07-6.8,3.74-1.84,7.22-.8c4.88,1.46,7.14,2.56,6.6,4.17Z"/>
</svg>