<?xml version="1.0" encoding="UTF-8"?>
<svg id="Layer_1" data-name="Layer 1" xmlns="http://www.w3.org/2000/svg" viewBox="0 0 500 500">
  <defs>
    <style>
      .cls-1, .cls-2, .cls-3, .cls-4, .cls-5, .cls-6, .cls-7 {
        stroke-miterlimit: 10;
      }

      .cls-1, .cls-3, .cls-4, .cls-5, .cls-6, .cls-7 {
        stroke: #000;
      }

      .cls-1, .cls-5, .cls-6 {
        stroke-linecap: round;
      }

      .cls-1, .cls-7 {
        fill: #ffe3bf;
      }

      .cls-2 {
        fill: #fff;
        stroke: #fff;
      }

      .cls-8, .cls-4, .cls-5 {
        fill: #ff953f;
      }

      .cls-6 {
        fill: none;
      }
    </style>
  </defs>
  <path class="cls-4" d="M345.04,390.66s-6.6-62.09,48.79-95.29c0,0,26.87-10.59,20.17-22.65,0,0,11.01,13.77,8.25,24.01-2.76,10.24,24.78-10.29,26.4-21,0,0,6.96,23.99-16.82,48.24s11.2,12.19,18.02.42c0,0-1.68,78.41-104.81,66.27Z"/>
  <path class="cls-4" d="M319.95,242.78h-146.53s-63.06,98.08-38.99,159.55h223.61l.32-.54c24.07-61.47-38.99-159.55-38.99-159.55"/>
  <g>
    <g>
      <path class="cls-8" d="M246.12,278.06c-49.63,0-90.01-40.38-90.01-90.01s40.38-90.01,90.01-90.01,90.01,40.38,90.01,90.01-40.38,90.01-90.01,90.01Z"/>
      <path d="M246.12,98.55c49.35,0,89.51,40.15,89.51,89.51s-40.15,89.51-89.51,89.51-89.51-40.15-89.51-89.51,40.15-89.51,89.51-89.51M246.12,97.55c-49.99,0-90.51,40.52-90.51,90.51s40.52,90.51,90.51,90.51,90.51-40.52,90.51-90.51-40.52-90.51-90.51-90.51h0Z"/>
    </g>
    <path class="cls-4" d="M168.16,143.11s-23.36,51.18-41.27,65.96c-.61.5-.38,1.47.39,1.64,3.45.76,11.07,1.8,17.69-1.77.78-.42,1.65.37,1.31,1.18-1.48,3.51-4.53,9.5-8.88,12.14-.73.44-.56,1.54.28,1.72,7.33,1.55,25.92,7.13,43.29,25.85"/>
    <path class="cls-4" d="M324.19,143.03s23.36,51.18,41.27,65.96c.61.5.38,1.47-.39,1.64-3.45.76-11.07,1.8-17.69-1.77-.78-.42-1.65.37-1.31,1.18,1.48,3.51,4.53,9.5,8.88,12.14.73.44.56,1.54-.28,1.72-7.33,1.55-25.92,7.13-43.29,25.85"/>
    <path class="cls-4" d="M180.58,126.1s-10.81-21.88-7.81-51.05c0,0,23.82,3.37,45.05,27.33"/>
    <path class="cls-4" d="M311.97,126.57s10.81-21.88,7.81-51.05c0,0-24.87,2.6-46.1,26.57"/>
  </g>
  <path class="cls-7" d="M173.9,402.29s-.35-104.11,72.31-110.89c0,0,63.96-4,72.66,110.72l-144.96.17Z"/>
  <path class="cls-7" d="M207.61,104.91c-2.67-3.17-13.43-13.16-26.48-18.44-.36-.14-.74.15-.7.53.31,2.53,1.34,10.16,3.27,14.69,2.2,5.19-3.79.22-4.47-.36-.02-.02-.05,0-.04.03.25.78,2.35,6.99,6.02,8.86,3.73,1.9-3.75,1.55-4.48,1.52-.02,0-.03.02-.02.04.46.5,5.07,5.39,8.07,5.32,2.67-.06,14.81-7.93,18.56-10.4.6-.4.73-1.22.26-1.78Z"/>
  <path class="cls-7" d="M283.77,105.26c2.67-3.17,13.43-13.16,26.48-18.44.36-.14.74.15.7.53-.31,2.53-1.34,10.16-3.27,14.69-2.2,5.19,3.79.22,4.47-.36.02-.02.05,0,.04.03-.25.78-2.35,6.99-6.02,8.86s3.75,1.55,4.48,1.52c.02,0,.03.02.02.04-.46.5-5.07,5.39-8.07,5.32-2.67-.06-14.81-7.93-18.56-10.4-.6-.4-.73-1.22-.26-1.78Z"/>
  <path class="cls-6" d="M246.39,196.55s2.16,14.11,14.85,9.12"/>
  <path class="cls-6" d="M246.44,196.48s-2.16,14.11-14.85,9.12"/>
  <ellipse class="cls-7" cx="246.24" cy="194.62" rx="5.12" ry="2.03"/>
  <path class="cls-7" d="M237.8,98.82c1.02,1.25,5.78,7.91,8.25,25.87.03.18.29.2.31.02.64-4.57,3.25-21.24,7.93-25.75.09-.09.06-.24-.07-.26-1.31-.24-7.02-1.13-16.31-.14-.13.01-.2.16-.12.26Z"/>
  <path class="cls-7" d="M256.96,99.34c.6,1.07,3.27,6.68,2.75,20.45,0,.14.19.19.23.06,1.08-3.33,5.25-15.46,9.34-18.22.08-.06.07-.17-.02-.2-.95-.36-5.1-1.77-12.18-2.26-.1,0-.17.1-.12.18Z"/>
  <path class="cls-7" d="M235.33,99.4c-.6,1.07-3.27,6.68-2.75,20.45,0,.14-.19.19-.23.06-1.08-3.33-5.25-15.46-9.34-18.22-.08-.06-.07-.17.02-.2.95-.36,5.1-1.77,12.18-2.26.1,0,.17.1.12.18Z"/>
  <path class="cls-7" d="M186.52,255.01c.11-1.22,1.08-7.36,9.3-18.42.08-.11-.05-.26-.16-.18-2.78,2.14-13.07,9.78-18.01,9.74-.1,0-.16.1-.1.18.58.83,3.21,4.35,8.77,8.76.08.06.19.02.2-.08Z"/>
  <path class="cls-7" d="M201.21,265.37c-.09-1.22-.15-7.44,6.14-19.7.06-.13-.09-.25-.19-.15-2.39,2.57-11.28,11.8-16.16,12.57-.1.02-.14.12-.07.19.71.72,3.88,3.76,10.09,7.2.08.05.19-.02.19-.11Z"/>
  <path class="cls-7" d="M300.66,258.85c-1.17-.35-7.01-2.5-16.24-12.73-.09-.1-.27,0-.21.12,1.55,3.15,7.03,14.73,6.02,19.57-.02.1.06.17.16.13.93-.41,4.89-2.29,10.31-6.88.07-.06.05-.19-.04-.21Z"/>
  <path class="cls-7" d="M313.08,246.75c-1.22-.09-7.39-.91-18.62-8.88-.12-.08-.26.05-.17.16,2.2,2.73,10.07,12.85,10.14,17.79,0,.1.1.16.18.1.82-.6,4.28-3.3,8.56-8.96.06-.08.01-.19-.08-.2Z"/>
  <path class="cls-7" d="M157.59,165.41c1.2-.24,7.37-1.05,20.3,3.7.13.05.24-.12.12-.2-2.84-2.06-13.08-9.77-14.44-14.51-.03-.09-.14-.12-.2-.05-.63.79-3.26,4.31-5.92,10.89-.04.09.04.19.13.17Z"/>
  <path class="cls-7" d="M334.28,163.67c-1.2-.24-7.37-1.05-20.3,3.7-.13.05-.24-.12-.12-.2,2.84-2.06,13.08-9.77,14.44-14.51.03-.09.14-.12.2-.05.63.79,3.26,4.31,5.92,10.89.04.09-.04.19-.13.17Z"/>
  <g>
    <path class="cls-5" d="M203.76,295.1c-1.98.2-1.47-28.54,30.23-54.92,20.44-17-6.77-32.04-20.7-27.67-23.47,7.35-48.68,40.18-47.68,77.62"/>
    <path class="cls-1" d="M225.8,247.5c-.11-7.39-11.11-4.52-11.11-4.52.08-14.22-12.69-10.01-12.69-10.01.98-6.78-4.82-11.68-4.82-11.68,0,0,17.2-16.7,35.4-5.49,18.2,11.21,1.64,23.96,1.64,23.96l-8.43,7.73Z"/>
    <path class="cls-6" d="M237.82,220.47s-10.54,6.17-13.1,12.87"/>
    <path class="cls-6" d="M228.08,213.71s-12.67,4-13.72,10.54"/>
  </g>
  <g>
    <path class="cls-5" d="M290.4,293.81c1.99-.03-1.93-28.52-36.55-50.93-22.32-14.45,2.92-32.62,17.26-29.94,24.18,4.51,53.12,34.11,56.58,71.4"/>
    <path class="cls-1" d="M262.85,249.17c-.77-7.35,10.49-5.8,10.49-5.8-1.77-14.11,11.41-11.45,11.41-11.45-1.77-6.62,3.39-12.17,3.39-12.17,0,0-19.06-14.53-35.8-1.24-16.74,13.29,1.22,23.99,1.22,23.99l9.29,6.68Z"/>
    <path class="cls-6" d="M247.47,224.07s11.44,4.57,14.78,10.92"/>
    <path class="cls-6" d="M256.72,215.87s12.91,2.48,14.72,8.85"/>
  </g>
  <path class="cls-3" d="M221.98,182.43c1.62,5.6-1.6,11.45-7.2,13.08-5.6,1.62-11.45-1.6-13.08-7.2s3.19-6.26,8.78-7.89c5.6-1.62,9.87-3.59,11.49,2.01Z"/>
  <circle class="cls-2" cx="206.32" cy="186.42" r="2.66"/>
  <path class="cls-3" d="M269.46,183.1c-1.62,5.6,1.6,11.45,7.2,13.08,5.6,1.62,11.45-1.6,13.08-7.2s-3.19-6.26-8.78-7.89c-5.6-1.62-9.87-3.59-11.49,2.01Z"/>
  <circle class="cls-2" cx="273.34" cy="185.52" r="2.66"/>
</svg>